<svg width="184" height="26" viewBox="0 0 184 26" fill="none" xmlns="http://www.w3.org/2000/svg">
<path d="M0.624 25V1.448H5.872V25H0.624ZM14.8 25L7.952 14.952H13.712L20.88 25H14.8ZM4.464 17.512V13.384H10.224C10.992 13.384 11.6533 13.2347 12.208 12.936C12.784 12.616 13.2213 12.1787 13.52 11.624C13.84 11.048 14 10.3867 14 9.64C14 8.89333 13.84 8.24267 13.52 7.688C13.2213 7.112 12.784 6.67467 12.208 6.376C11.6533 6.056 10.992 5.896 10.224 5.896H4.464V1.448H9.808C11.7493 1.448 13.4347 1.74667 14.864 2.344C16.2933 2.92 17.392 3.784 18.16 4.936C18.928 6.088 19.312 7.53867 19.312 9.288V9.8C19.312 11.528 18.9173 12.968 18.128 14.12C17.36 15.2507 16.2613 16.104 14.832 16.68C13.424 17.2347 11.7493 17.512 9.808 17.512H4.464ZM31.9425 25.608C30.4065 25.608 29.0412 25.3733 27.8465 24.904C26.6518 24.4133 25.6385 23.752 24.8065 22.92C23.9958 22.088 23.3772 21.1387 22.9505 20.072C22.5238 18.984 22.3105 17.8427 22.3105 16.648V15.912C22.3105 14.696 22.5238 13.544 22.9505 12.456C23.3985 11.3467 24.0385 10.376 24.8705 9.544C25.7238 8.712 26.7478 8.06133 27.9425 7.592C29.1372 7.10133 30.4705 6.856 31.9425 6.856C33.4572 6.856 34.8012 7.10133 35.9745 7.592C37.1692 8.06133 38.1825 8.712 39.0145 9.544C39.8465 10.376 40.4865 11.3467 40.9345 12.456C41.3825 13.544 41.6065 14.696 41.6065 15.912V16.648C41.6065 17.8427 41.3932 18.984 40.9665 20.072C40.5398 21.1387 39.9105 22.088 39.0785 22.92C38.2678 23.752 37.2652 24.4133 36.0705 24.904C34.8758 25.3733 33.4998 25.608 31.9425 25.608ZM31.9425 21.288C32.9452 21.288 33.7772 21.0747 34.4385 20.648C35.0998 20.2213 35.6012 19.624 35.9425 18.856C36.3052 18.088 36.4865 17.2347 36.4865 16.296C36.4865 15.2933 36.3052 14.4187 35.9425 13.672C35.5798 12.904 35.0572 12.296 34.3745 11.848C33.7132 11.4 32.9025 11.176 31.9425 11.176C31.0038 11.176 30.1932 11.4 29.5105 11.848C28.8278 12.296 28.3052 12.904 27.9425 13.672C27.6012 14.4187 27.4305 15.2933 27.4305 16.296C27.4305 17.2347 27.6012 18.088 27.9425 18.856C28.2838 19.624 28.7958 20.2213 29.4785 20.648C30.1612 21.0747 30.9825 21.288 31.9425 21.288ZM53.7238 25.608C52.1878 25.608 50.8224 25.3733 49.6278 24.904C48.4331 24.4133 47.4198 23.752 46.5878 22.92C45.7771 22.088 45.1584 21.1387 44.7318 20.072C44.3051 18.984 44.0918 17.8427 44.0918 16.648V15.912C44.0918 14.696 44.3051 13.544 44.7318 12.456C45.1798 11.3467 45.8198 10.376 46.6518 9.544C47.5051 8.712 48.5291 8.06133 49.7238 7.592C50.9184 7.10133 52.2518 6.856 53.7238 6.856C55.2384 6.856 56.5824 7.10133 57.7558 7.592C58.9504 8.06133 59.9638 8.712 60.7958 9.544C61.6278 10.376 62.2678 11.3467 62.7158 12.456C63.1638 13.544 63.3878 14.696 63.3878 15.912V16.648C63.3878 17.8427 63.1744 18.984 62.7478 20.072C62.3211 21.1387 61.6918 22.088 60.8598 22.92C60.0491 23.752 59.0464 24.4133 57.8518 24.904C56.6571 25.3733 55.2811 25.608 53.7238 25.608ZM53.7238 21.288C54.7264 21.288 55.5584 21.0747 56.2198 20.648C56.8811 20.2213 57.3824 19.624 57.7238 18.856C58.0864 18.088 58.2678 17.2347 58.2678 16.296C58.2678 15.2933 58.0864 14.4187 57.7238 13.672C57.3611 12.904 56.8384 12.296 56.1558 11.848C55.4944 11.4 54.6838 11.176 53.7238 11.176C52.7851 11.176 51.9744 11.4 51.2917 11.848C50.6091 12.296 50.0864 12.904 49.7238 13.672C49.3824 14.4187 49.2118 15.2933 49.2118 16.296C49.2118 17.2347 49.3824 18.088 49.7238 18.856C50.0651 19.624 50.5771 20.2213 51.2598 20.648C51.9424 21.0747 52.7638 21.288 53.7238 21.288ZM66.961 25V7.464H71.025V15.016H70.737C70.737 13.224 70.961 11.7307 71.409 10.536C71.857 9.34133 72.529 8.44533 73.425 7.848C74.321 7.22933 75.4197 6.92 76.721 6.92H76.945C78.2677 6.92 79.3663 7.22933 80.241 7.848C81.137 8.44533 81.809 9.34133 82.257 10.536C82.7263 11.7307 82.961 13.224 82.961 15.016H81.713C81.713 13.224 81.937 11.7307 82.385 10.536C82.8543 9.34133 83.537 8.44533 84.433 7.848C85.329 7.22933 86.4277 6.92 87.729 6.92H87.953C89.2757 6.92 90.385 7.22933 91.281 7.848C92.1983 8.44533 92.8917 9.34133 93.361 10.536C93.8303 11.7307 94.065 13.224 94.065 15.016V25H88.945V14.728C88.945 13.768 88.689 12.9893 88.177 12.392C87.6863 11.7947 86.9823 11.496 86.065 11.496C85.1477 11.496 84.4223 11.8053 83.889 12.424C83.3557 13.0213 83.089 13.8213 83.089 14.824V25H77.937V14.728C77.937 13.768 77.681 12.9893 77.169 12.392C76.6783 11.7947 75.985 11.496 75.089 11.496C74.1503 11.496 73.4143 11.8053 72.881 12.424C72.3477 13.0213 72.081 13.8213 72.081 14.824V25H66.961Z" fill="white"/>
<path d="M109.438 25.608C107.326 25.608 105.512 25.2453 103.998 24.52C102.483 23.7733 101.246 22.8027 100.286 21.608C99.3258 20.392 98.6111 19.0907 98.1418 17.704C97.6938 16.296 97.4698 14.9307 97.4698 13.608V12.904C97.4698 11.4533 97.7044 10.024 98.1738 8.616C98.6431 7.18667 99.3578 5.896 100.318 4.744C101.299 3.592 102.526 2.67467 103.998 1.992C105.491 1.288 107.251 0.935999 109.278 0.935999C111.39 0.935999 113.256 1.33067 114.878 2.12C116.499 2.90933 117.79 4.008 118.75 5.416C119.731 6.80267 120.307 8.43467 120.478 10.312H115.198C115.048 9.37333 114.707 8.57333 114.174 7.912C113.64 7.25067 112.947 6.73867 112.094 6.376C111.262 6.01333 110.323 5.832 109.278 5.832C108.232 5.832 107.304 6.01333 106.494 6.376C105.683 6.73867 105 7.25067 104.446 7.912C103.912 8.57333 103.496 9.36267 103.198 10.28C102.92 11.176 102.782 12.1787 102.782 13.288C102.782 14.376 102.92 15.3787 103.198 16.296C103.496 17.192 103.923 17.9813 104.478 18.664C105.054 19.3253 105.758 19.8373 106.59 20.2C107.422 20.5413 108.371 20.712 109.438 20.712C111.059 20.712 112.424 20.3173 113.534 19.528C114.664 18.7387 115.347 17.6507 115.582 16.264H120.83C120.638 17.9707 120.062 19.5387 119.102 20.968C118.163 22.376 116.872 23.5067 115.23 24.36C113.608 25.192 111.678 25.608 109.438 25.608ZM124.024 25V1.64H129.144V15.112H128.376C128.376 13.3413 128.6 11.848 129.048 10.632C129.496 9.416 130.157 8.49867 131.032 7.88C131.906 7.24 133.005 6.92 134.328 6.92H134.552C136.493 6.92 137.976 7.61333 139 9C140.024 10.3653 140.536 12.3707 140.536 15.016V25H135.416V14.696C135.416 13.736 135.128 12.968 134.552 12.392C133.997 11.7947 133.261 11.496 132.344 11.496C131.384 11.496 130.605 11.8053 130.008 12.424C129.432 13.0427 129.144 13.864 129.144 14.888V25H124.024ZM145.731 25V7.464H150.851V25H145.731ZM143.395 11.24V7.464H150.851V11.24H143.395ZM147.715 5.736C146.755 5.736 146.04 5.49067 145.571 5C145.123 4.488 144.899 3.848 144.899 3.08C144.899 2.29066 145.123 1.65066 145.571 1.16C146.04 0.647998 146.755 0.391998 147.715 0.391998C148.675 0.391998 149.379 0.647998 149.827 1.16C150.296 1.65066 150.531 2.29066 150.531 3.08C150.531 3.848 150.296 4.488 149.827 5C149.379 5.49067 148.675 5.736 147.715 5.736ZM155.81 25V1.64H160.962V25H155.81ZM153.73 5.416V1.64H160.962V5.416H153.73ZM172.912 25.576C171.674 25.576 170.544 25.352 169.52 24.904C168.517 24.456 167.642 23.8373 166.896 23.048C166.149 22.2373 165.573 21.288 165.168 20.2C164.784 19.112 164.592 17.9387 164.592 16.68V15.944C164.592 14.6853 164.773 13.512 165.136 12.424C165.52 11.336 166.064 10.3867 166.768 9.576C167.493 8.744 168.357 8.104 169.36 7.656C170.362 7.18667 171.482 6.952 172.72 6.952C174.128 6.952 175.344 7.26133 176.368 7.88C177.392 8.47733 178.192 9.37333 178.768 10.568C179.344 11.7413 179.664 13.192 179.728 14.92L178.384 13.672V1.64H183.536V25H179.472V17.736H180.176C180.112 19.4 179.76 20.8187 179.12 21.992C178.501 23.1653 177.658 24.0613 176.592 24.68C175.525 25.2773 174.298 25.576 172.912 25.576ZM174.192 21.288C174.981 21.288 175.696 21.1173 176.336 20.776C176.997 20.4133 177.52 19.8907 177.904 19.208C178.309 18.5253 178.512 17.704 178.512 16.744V15.56C178.512 14.6213 178.309 13.832 177.904 13.192C177.498 12.552 176.965 12.0613 176.304 11.72C175.642 11.3787 174.928 11.208 174.16 11.208C173.306 11.208 172.538 11.432 171.856 11.88C171.194 12.3067 170.672 12.904 170.288 13.672C169.904 14.4187 169.712 15.2933 169.712 16.296C169.712 17.32 169.904 18.2053 170.288 18.952C170.672 19.6987 171.205 20.2747 171.888 20.68C172.57 21.0853 173.338 21.288 174.192 21.288Z" fill="#FFD300"/>
</svg>
